<svg width="101" height="32" viewBox="0 0 101 32" fill="none" xmlns="http://www.w3.org/2000/svg">
<path d="M0.839844 12.5428C0.839844 6.53657 4.7207 2.09717 10.4988 2.09717C15.0696 2.09717 18.7779 4.88267 18.7779 7.66817C18.7779 8.84327 18.0017 9.62667 16.7081 9.62667C13.5603 9.62667 13.6897 3.88167 9.5502 3.88167C7.2217 3.88167 5.1088 6.18837 5.1088 9.88787C5.1088 15.72 8.5153 19.5501 12.0511 19.5501C14.9833 19.5501 16.665 17.4174 17.5705 15.8506C18.0449 15.2413 19.0798 15.4153 18.9504 16.3293C18.6485 20.0288 15.9751 23.5107 10.7575 23.5107C5.2381 23.5107 0.839844 18.2008 0.839844 12.5428Z" fill="#133A23"/>
<path d="M20.373 22.7277V22.5971C20.373 21.8572 21.4942 21.6396 21.4942 20.3774V5.92774C21.4942 4.62204 20.373 4.31734 20.373 3.70804V3.57744C20.373 3.27274 20.5886 3.14224 20.9336 2.96814L24.5988 1.14014C25.375 0.748431 25.8062 1.18366 25.8062 1.66242V20.3339C25.8062 21.5525 27.0567 21.8137 27.0567 22.5536V22.6841C27.0567 22.9888 26.7549 23.2064 26.3668 23.2064H21.063C20.6318 23.2064 20.373 23.0323 20.373 22.7277Z" fill="#133A23"/>
<path d="M41.5024 19.0713C41.3299 20.7687 39.3463 23.5107 35.5949 23.5107C31.5416 23.5107 28.5663 20.5511 28.5663 16.0247C28.48 12.1511 31.4984 8.8869 35.3793 8.7998C35.4655 8.7998 35.5518 8.7998 35.5949 8.7998C39.3895 8.7998 41.1143 11.0195 41.1143 12.978C41.1574 13.8485 40.64 14.6319 39.8207 14.9366L33.3526 17.8962C33.9994 19.463 35.5086 20.4641 37.1903 20.4641C38.5271 20.5076 39.7775 19.8547 40.5106 18.7666C40.8556 18.3314 41.5024 18.462 41.5024 19.0713ZM32.5764 14.0226C32.5764 14.8931 32.6627 15.72 32.8783 16.547L36.6298 14.6319C37.1472 14.3708 37.449 13.805 37.4059 13.2392C37.4059 12.1946 36.6298 10.1055 35.0774 10.1055C33.5251 10.1055 32.5764 11.8029 32.5764 14.0226Z" fill="#133A23"/>
<path d="M54.5245 11.4986C54.5245 12.7173 54.0502 13.8054 52.6703 13.8054C50.3849 13.8054 51.4198 11.281 49.8244 11.281C48.7032 11.281 48.272 12.8914 48.272 14.5017V20.3774C48.272 21.596 49.7381 21.8572 49.7381 22.5971V22.7276C49.7381 23.0758 49.4794 23.2499 49.0913 23.2499H43.7444C43.3132 23.2499 43.0545 23.0758 43.0545 22.7276V22.5971C43.0545 21.8572 44.1756 21.6396 44.1756 20.3774V13.5442C44.1756 12.2385 42.8389 12.1515 42.8389 11.4116V11.281C42.8389 10.9764 43.0545 10.7587 43.4426 10.5846L46.9353 8.93082C47.5821 8.62612 47.8839 8.97432 47.8839 9.54012V11.7598C48.5308 9.88832 49.9106 8.84372 51.851 8.84372C53.2309 8.75672 54.4382 9.84472 54.5245 11.2375C54.5245 11.3245 54.5245 11.4116 54.5245 11.4986Z" fill="#133A23"/>
<path d="M71.6004 22.6404V22.7275C71.6004 23.0757 71.3848 23.2498 70.9967 23.2498H65.5636C65.2617 23.2933 65.003 23.0757 65.003 22.771V22.7275V22.684C65.003 21.9441 66.081 21.77 65.6067 21.0736L62.4589 16.5907L60.7341 18.2011V20.4207C60.7341 21.6394 61.9846 21.9005 61.9846 22.6404V22.771C61.9846 23.0757 61.7258 23.2933 61.2946 23.2933H55.9477C55.5596 23.2933 55.3009 23.0757 55.3009 22.771V22.6404C55.3009 21.9005 56.422 21.6829 56.422 20.4207V5.9275C56.422 4.6218 55.1284 4.3171 55.1284 3.7078V3.5772C55.1284 3.2726 55.344 3.142 55.7321 2.9679L59.6129 1.13992C60.3029 0.791733 60.7772 1.18344 60.7772 1.6622V15.9378L65.3911 11.9337C66.2535 11.1938 64.7011 10.4539 64.7011 9.7575V9.627C64.7011 9.3223 64.9167 9.1047 65.3048 9.1047H69.4444C69.7893 9.1047 70.0481 9.2788 70.0481 9.5834V9.714C70.0481 10.4539 68.6251 10.9327 67.5471 11.8902L65.1755 14.1099L70.0481 21.0301C70.5224 21.6829 71.6004 21.9441 71.6004 22.6404Z" fill="#133A23"/>
<path d="M71.6001 20.0723C71.6001 18.9407 72.3763 18.462 73.3249 18.462C75.869 18.462 74.8772 22.3356 77.8094 22.3356C79.0168 22.3356 79.9223 21.7262 79.9223 20.377C79.9223 16.4599 71.8157 18.8972 71.8157 13.1086C71.8157 10.6278 74.2304 8.7998 77.7232 8.7998C81.3884 8.7998 83.7169 10.4972 83.7169 12.3252C83.6738 13.1957 82.9407 13.892 82.1215 13.8485C79.7067 13.8485 80.5691 10.0185 78.025 10.0185C76.9901 9.9749 76.1277 10.8019 76.1277 11.8464C76.1277 11.89 76.1277 11.9335 76.1277 11.977C76.1277 15.9812 84.0619 13.6309 84.0619 19.2454C84.0619 21.6392 81.7334 23.4672 77.8525 23.4672C74.058 23.4672 71.6001 21.9003 71.6001 20.0723Z" fill="#133A23"/>
<path d="M100.534 9.58338V9.71398C100.534 10.4539 99.629 10.715 99.068 12.0207L93.549 24.1202C92.6 26.2093 90.1853 31.3886 87.1668 31.3886C84.5365 31.3886 82.8979 29.7782 82.8979 28.2549C82.8548 27.3409 83.5447 26.5575 84.4502 26.514C84.5365 26.514 84.5796 26.514 84.6658 26.514C87.0375 26.514 86.3044 30.0394 87.8136 30.0394C88.8485 30.0394 90.9183 26.0788 91.7376 24.0767L85.9163 12.0207C85.2695 10.715 84.364 10.4539 84.364 9.71398V9.58338C84.364 9.27878 84.6227 9.10468 84.9677 9.10468H90.4009C90.6596 9.06108 90.9183 9.27878 90.9614 9.58338V9.62688V9.75748C90.9614 10.4974 89.8834 10.5845 90.5302 12.1078L93.937 20.0725L97.085 12.543C97.861 10.715 95.791 10.4974 95.791 9.80098V9.67048C95.791 9.36578 96.007 9.14818 96.395 9.14818H99.93C100.275 9.10468 100.534 9.32228 100.534 9.58338Z" fill="#133A23"/>
</svg>
